<svg width="1400" height="1400" viewBox="0 0 1400 1400" fill="none" xmlns="http://www.w3.org/2000/svg">
<g clip-path="url(#clip0_7_2)">
<path d="M1400 700C1400 1086.6 1086.6 1400 700 1400C313.401 1400 0 1086.6 0 700C0 313.401 313.401 0 700 0C1086.6 0 1400 313.401 1400 700Z" fill="black"/>
<path d="M824.879 341.562C824.879 332.614 832.133 325.361 841.08 325.361H1057.09C1066.04 325.361 1073.29 332.614 1073.29 341.562V557.569C1073.29 566.517 1066.04 573.77 1057.09 573.77H841.08C832.133 573.77 824.879 566.517 824.879 557.569V341.562Z" fill="white"/>
</g>
<defs>
<clipPath id="clip0_7_2">
<rect width="1400" height="1400" fill="white"/>
</clipPath>
</defs>
</svg>
